<svg xmlns="http://www.w3.org/2000/svg" width="256" height="256" viewBox="0 0 256 256" version="1.1">
	<path d="M 64.843 31.212 C 14.392 56.532, 2.214 63.025, 1 65.250 C -2.233 71.177, -2.683 70.898, 65.242 104.998 L 127.984 136.495 190.101 105.498 C 253.584 73.819, 257 71.827, 257 66.489 C 257 65.487, 256.703 64.964, 256.340 65.327 C 255.977 65.690, 255.038 65.072, 254.254 63.952 C 253.020 62.191, 135.171 2.418, 129.343 0.598 C 127.717 0.090, 111.855 7.619, 64.843 31.212 M 0.158 68 C 0.158 69.375, 0.385 69.938, 0.662 69.250 C 0.940 68.563, 0.940 67.438, 0.662 66.750 C 0.385 66.063, 0.158 66.625, 0.158 68 M 26.878 170.391 C 7.920 179.808, 2.167 183.111, 1 185.250 C -2.209 191.133, -2.503 190.949, 64.011 224.723 C 97.830 241.895, 126.587 255.958, 127.916 255.973 C 129.246 255.988, 157.596 242.248, 190.916 225.440 C 252.313 194.471, 257 191.718, 257 186.621 C 257 185.546, 256.703 184.964, 256.340 185.327 C 255.977 185.690, 255.016 185.040, 254.205 183.882 C 253.393 182.723, 241.976 176.467, 228.832 169.978 L 204.934 158.181 167.571 176.590 C 147.022 186.716, 129.268 195, 128.117 195 C 126.966 195, 109.202 186.739, 88.640 176.641 L 51.255 158.283 26.878 170.391 M 0.158 188 C 0.158 189.375, 0.385 189.938, 0.662 189.250 C 0.940 188.563, 0.940 187.438, 0.662 186.750 C 0.385 186.063, 0.158 186.625, 0.158 188" stroke="none" fill="black" fill-rule="evenodd"/>
</svg>